<?xml version="1.0" encoding="UTF-8"?>
<svg id="_圖層_2" data-name="圖層 2" xmlns="http://www.w3.org/2000/svg" viewBox="0 0 14 12">
  <defs>
    <style>
      .cls-1 {
        fill: #f8f8f8;
      }
    </style>
  </defs>
  <g id="mainpic">
    <path class="cls-1" d="M7,10.93c-1.14-.67-6-3.7-6-7.05,0-.76,.3-1.49,.84-2.03,.54-.54,1.27-.84,2.03-.84,1.22,0,2.24,.65,2.66,1.69,.04,.09,.1,.17,.18,.23s.18,.08,.28,.08,.2-.03,.28-.08,.15-.13,.18-.23c.43-1.04,1.45-1.69,2.66-1.69,.76,0,1.49,.3,2.03,.84,.54,.54,.84,1.27,.84,2.03,0,3.35-4.86,6.39-6,7.05ZM10.13,0c-1.29,0-2.42,.56-3.13,1.49-.7-.94-1.83-1.49-3.13-1.49C2.85,0,1.86,.41,1.14,1.14S0,2.85,0,3.88c0,4.38,6.49,7.92,6.76,8.06,.07,.04,.15,.06,.24,.06s.16-.02,.24-.06c.28-.15,6.76-3.69,6.76-8.06,0-1.03-.41-2.01-1.14-2.74S11.16,0,10.13,0Z"/>
  </g>
</svg>