<?xml version="1.0" encoding="UTF-8"?>
<svg id="_圖層_2" data-name="圖層 2" xmlns="http://www.w3.org/2000/svg" viewBox="0 0 11.88 11.88">
  <defs>
    <style>
      .cls-1 {
        fill: #fff;
      }
    </style>
  </defs>
  <g id="mainpic">
    <path class="cls-1" d="M.28,10.27L8.67,1.88H2.81c-.25,0-.49-.1-.66-.27s-.27-.41-.27-.66,.1-.49,.27-.66,.41-.27,.66-.27H10.94c.25,0,.49,.1,.66,.27s.27,.41,.27,.66V9.06c0,.25-.1,.49-.27,.66s-.41,.27-.66,.27-.49-.1-.66-.27-.27-.41-.27-.66V3.2L1.6,11.6c-.09,.09-.19,.16-.3,.2-.11,.05-.24,.07-.36,.07s-.25-.02-.36-.07c-.11-.05-.22-.12-.3-.2-.09-.09-.16-.19-.2-.3-.05-.11-.07-.24-.07-.36s.02-.25,.07-.36c.05-.11,.12-.22,.2-.3h0Z"/>
  </g>
</svg>