<?xml version="1.0" encoding="UTF-8"?>
<svg id="_圖層_2" data-name="圖層 2" xmlns="http://www.w3.org/2000/svg" viewBox="0 0 14.83 16.5">
  <defs>
    <style>
      .cls-1 {
        fill: #3a3a3a;
        opacity: .6;
      }
    </style>
  </defs>
  <g id="event">
    <path class="cls-1" d="M4.83,9.09h0s-1.5,0-1.5,0h0s1.5,0,1.5,0Zm-.75-.75h0v1.5h0v-1.5Zm-.75,.75h0s1.5,0,1.5,0h0s-1.5,0-1.5,0Zm.75,.75h0v-1.5h0v1.5Zm4.08-.75h0s-1.5,0-1.5,0h0s1.5,0,1.5,0Zm-.75-.75h0v1.5h0v-1.5Zm-.75,.75h0s1.5,0,1.5,0h0s-1.5,0-1.5,0Zm.75,.75h0v-1.5h0v1.5Zm3.33,0h0v-1.5h0v1.5Zm.75-.75h0s-1.5,0-1.5,0h0s1.5,0,1.5,0Zm-.75-.75h0v1.5h0v-1.5Zm-.75,.75h0s1.5,0,1.5,0h0s-1.5,0-1.5,0Zm-5.17,3.33h0s-1.5,0-1.5,0h0s1.5,0,1.5,0Zm-.75-.75h0v1.5h0v-1.5Zm-.75,.75h0s1.5,0,1.5,0h0s-1.5,0-1.5,0Zm.75,.75h0v-1.5h0v1.5Zm4.08-.75h0s-1.5,0-1.5,0h0s1.5,0,1.5,0Zm-.75-.75h0v1.5h0v-1.5Zm-.75,.75h0s1.5,0,1.5,0h0s-1.5,0-1.5,0Zm.75,.75h0v-1.5h0v1.5Zm4.08-.75h0s-1.5,0-1.5,0h0s1.5,0,1.5,0Zm-.75-.75h0v1.5h0v-1.5Zm-.75,.75h0s1.5,0,1.5,0h0s-1.5,0-1.5,0Zm.75,.75h0v-1.5h0v1.5ZM.75,6.5H14.08v-1.5H.75v1.5Zm14.08,6.59V5.75h-1.5v7.34h1.5Zm-.26,2.09c.15-.3,.21-.62,.24-.94,.03-.32,.03-.7,.03-1.15h-1.5c0,.48,0,.79-.02,1.03-.02,.23-.05,.33-.08,.38l1.34,.68Zm-1.06,1.06c.46-.23,.82-.6,1.06-1.06l-1.34-.68c-.09,.17-.23,.31-.4,.4l.68,1.34Zm-2.09,.26c.45,0,.84,0,1.15-.03,.32-.03,.64-.08,.94-.24l-.68-1.34c-.05,.03-.15,.06-.38,.08-.24,.02-.55,.02-1.03,.02v1.5Zm-8.01,0H11.42v-1.5H3.41v1.5Zm-2.1-.26c.3,.15,.62,.21,.94,.24,.32,.03,.7,.03,1.15,.03v-1.5c-.48,0-.79,0-1.03-.02-.23-.02-.33-.05-.38-.08l-.68,1.34Zm-1.06-1.06c.23,.45,.6,.82,1.06,1.06l.68-1.34c-.17-.09-.31-.23-.4-.4l-1.34,.68ZM0,13.08C0,13.54,0,13.92,.03,14.24c.03,.32,.08,.64,.24,.94l1.34-.68c-.03-.06-.06-.15-.08-.38-.02-.24-.02-.55-.02-1.03H0ZM0,5.75v7.33H1.5V5.75H0ZM11.5,2.42V.75h-1.5v1.67h1.5Zm1.83,2.66v.67h1.5v-.67h-1.5Zm-.1-1.41c.03,.05,.06,.15,.08,.38,.02,.24,.02,.55,.02,1.03h1.5c0-.45,0-.84-.03-1.15-.03-.32-.08-.64-.24-.94l-1.34,.68Zm-.4-.4c.17,.09,.31,.23,.4,.4l1.34-.68c-.23-.46-.6-.82-1.06-1.06l-.68,1.34Zm-1.42-.1c.48,0,.79,0,1.03,.02,.23,.02,.33,.05,.38,.08l.68-1.34c-.3-.15-.62-.21-.94-.24-.32-.03-.7-.03-1.16-.03v1.5Zm-.67,0h.67V1.67h-.67v1.5Zm-5.92-.75V.75h-1.5v1.67h1.5Zm-.75,.75h6.67V1.67H4.08v1.5ZM0,5.08v.67H1.5v-.67H0ZM.26,2.99c-.15,.3-.21,.62-.24,.94C0,4.24,0,4.63,0,5.08H1.5c0-.48,0-.79,.02-1.03,.02-.23,.05-.33,.08-.38L.26,2.99ZM1.32,1.93c-.45,.23-.82,.6-1.06,1.06l1.34,.68c.09-.17,.23-.31,.4-.4l-.68-1.34Zm2.1-.26c-.45,0-.84,0-1.16,.03-.32,.03-.64,.08-.94,.24l.68,1.34c.06-.03,.15-.06,.38-.08,.24-.02,.55-.02,1.03-.02V1.67Zm.67,0h-.67v1.5h.67V1.67Zm0,7.42h-.75c0,.41,.34,.75,.75,.75v-.75Zm0,0v.75c.41,0,.75-.34,.75-.75h-.75Zm0,0h.75c0-.41-.34-.75-.75-.75v.75Zm0,0v-.75c-.41,0-.75,.34-.75,.75h.75Zm3.33,0h-.75c0,.41,.34,.75,.75,.75v-.75Zm0,0v.75c.41,0,.75-.34,.75-.75h-.75Zm0,0h.75c0-.41-.34-.75-.75-.75v.75Zm0,0v-.75c-.41,0-.75,.34-.75,.75h.75Zm3.33,0v-.75c-.41,0-.75,.34-.75,.75h.75Zm0,0h-.75c0,.41,.34,.75,.75,.75v-.75Zm0,0v.75c.41,0,.75-.34,.75-.75h-.75Zm0,0h.75c0-.41-.34-.75-.75-.75v.75Zm-6.67,3.33h-.75c0,.41,.34,.75,.75,.75v-.75Zm0,0v.75c.41,0,.75-.34,.75-.75h-.75Zm0,0h.75c0-.41-.34-.75-.75-.75v.75Zm0,0v-.75c-.41,0-.75,.34-.75,.75h.75Zm3.33,0h-.75c0,.41,.34,.75,.75,.75v-.75Zm0,0v.75c.41,0,.75-.34,.75-.75h-.75Zm0,0h.75c0-.41-.34-.75-.75-.75v.75Zm0,0v-.75c-.41,0-.75,.34-.75,.75h.75Zm3.33,0h-.75c0,.41,.34,.75,.75,.75v-.75Zm0,0v.75c.41,0,.75-.34,.75-.75h-.75Zm0,0h.75c0-.41-.34-.75-.75-.75v.75Zm0,0v-.75c-.41,0-.75,.34-.75,.75h.75Zm3.15,2.42l.67,.34h0s-.67-.34-.67-.34Zm-.73,.73l-.34-.67h0s.34,.67,.34,.67Zm-11.51,0l.34-.67h0s-.34,.67-.34,.67Zm-.73-.73l-.67,.34h0s.67-.34,.67-.34ZM11.5,.75c0-.41-.34-.75-.75-.75s-.75,.34-.75,.75h1.5Zm2.4,2.58l-.67,.34h0s.67-.34,.67-.34Zm-.73-.73l-.34,.67h0s.34-.67,.34-.67ZM4.83,.75c0-.41-.34-.75-.75-.75s-.75,.34-.75,.75h1.5ZM.93,3.33l.67,.34-.67-.34Zm.73-.73l.34,.67h0l-.34-.67Z"/>
  </g>
</svg>