<?xml version="1.0" encoding="UTF-8"?>
<svg id="_圖層_2" data-name="圖層 2" xmlns="http://www.w3.org/2000/svg" viewBox="0 0 33.96 33.96">
  <defs>
    <style>
      .cls-1 {
        fill: #c79f62;
      }
    </style>
  </defs>
  <g id="footer">
    <path class="cls-1" d="M16.98,0C12.37,0,11.79,.02,9.98,.1c-1.81,.08-3.04,.37-4.12,.79-1.12,.43-2.06,1.01-3.01,1.96-.94,.94-1.52,1.89-1.96,3.01C.47,6.94,.18,8.17,.1,9.98c-.08,1.81-.1,2.39-.1,7s.02,5.19,.1,7c.08,1.81,.37,3.04,.79,4.12,.43,1.12,1.01,2.06,1.96,3.01,.94,.94,1.89,1.53,3.01,1.96,1.08,.42,2.31,.71,4.12,.79,1.81,.08,2.39,.1,7,.1s5.19-.02,7-.1c1.81-.08,3.04-.37,4.12-.79,1.12-.43,2.06-1.02,3.01-1.96,.94-.94,1.52-1.89,1.96-3.01,.42-1.08,.7-2.31,.79-4.12,.08-1.81,.1-2.39,.1-7s-.02-5.19-.1-7c-.08-1.81-.37-3.04-.79-4.12-.44-1.12-1.02-2.06-1.96-3.01-.94-.94-1.89-1.52-3.01-1.96-1.08-.42-2.32-.71-4.13-.79-1.81-.08-2.39-.1-7-.1h0Zm-1.52,3.06c.45,0,.96,0,1.52,0,4.53,0,5.07,.02,6.86,.1,1.66,.08,2.55,.35,3.15,.58,.79,.31,1.36,.68,1.95,1.27,.59,.59,.96,1.16,1.27,1.95,.23,.6,.51,1.5,.58,3.15,.08,1.79,.1,2.33,.1,6.86s-.02,5.07-.1,6.86c-.08,1.66-.35,2.55-.58,3.15-.31,.79-.68,1.36-1.27,1.95-.59,.59-1.16,.96-1.95,1.27-.6,.23-1.5,.51-3.15,.59-1.79,.08-2.33,.1-6.86,.1s-5.07-.02-6.86-.1c-1.66-.08-2.55-.35-3.15-.59-.79-.31-1.36-.68-1.95-1.27-.59-.59-.96-1.16-1.27-1.95-.23-.6-.51-1.5-.58-3.15-.08-1.79-.1-2.33-.1-6.86s.02-5.07,.1-6.86c.08-1.66,.35-2.55,.58-3.15,.31-.79,.68-1.36,1.27-1.95,.59-.59,1.16-.96,1.95-1.27,.6-.23,1.5-.51,3.15-.59,1.57-.07,2.17-.09,5.34-.1h0Zm10.59,2.82c-1.13,0-2.04,.91-2.04,2.04s.91,2.04,2.04,2.04,2.04-.91,2.04-2.04-.91-2.04-2.04-2.04h0Zm-9.06,2.38c-4.82,0-8.72,3.9-8.72,8.72s3.9,8.72,8.72,8.72c4.82,0,8.72-3.9,8.72-8.72s-3.9-8.72-8.72-8.72h0Zm0,3.06c3.13,0,5.66,2.53,5.66,5.66s-2.53,5.66-5.66,5.66-5.66-2.53-5.66-5.66,2.53-5.66,5.66-5.66Z"/>
  </g>
</svg>