<?xml version="1.0" encoding="UTF-8"?>
<svg id="_圖層_2" data-name="圖層 2" xmlns="http://www.w3.org/2000/svg" viewBox="0 0 32.46 30.93">
  <defs>
    <style>
      .cls-1 {
        fill: #fff;
      }

      .cls-2 {
        fill: #c79f62;
      }
    </style>
  </defs>
  <g id="footer">
    <g id="g7962">
      <path id="path7964" class="cls-2" d="M32.46,13.17C32.46,5.91,25.18,0,16.23,0S0,5.91,0,13.17c0,6.51,5.77,11.96,13.57,13,.53,.11,1.25,.35,1.43,.8,.16,.41,.11,1.05,.05,1.47,0,0-.19,1.15-.23,1.39-.07,.41-.33,1.6,1.41,.87,1.73-.73,9.35-5.5,12.75-9.42h0c2.35-2.58,3.48-5.2,3.48-8.1"/>
    </g>
    <g id="g7966">
      <path id="path7968" class="cls-1" d="M12.93,9.66h-1.14c-.17,0-.32,.14-.32,.32v7.07c0,.17,.14,.32,.32,.32h1.14c.17,0,.32-.14,.32-.32v-7.07c0-.17-.14-.32-.32-.32"/>
    </g>
    <g id="g7970">
      <path id="path7972" class="cls-1" d="M20.77,9.66h-1.14c-.17,0-.32,.14-.32,.32v4.2l-3.24-4.38s-.02-.02-.02-.03h0s-.01-.02-.02-.02c0,0,0,0,0,0,0,0-.01,0-.02-.01,0,0,0,0,0,0,0,0-.01,0-.02-.01,0,0,0,0,0,0,0,0-.01,0-.02,0,0,0,0,0,0,0,0,0-.01,0-.02,0,0,0,0,0-.01,0,0,0-.01,0-.02,0,0,0,0,0-.01,0,0,0-.01,0-.02,0,0,0,0,0-.01,0,0,0-.01,0-.02,0,0,0-.01,0-.02,0,0,0,0,0-.01,0h-1.14c-.17,0-.32,.14-.32,.32v7.07c0,.17,.14,.32,.32,.32h1.14c.17,0,.32-.14,.32-.32v-4.2l3.25,4.38s.05,.06,.08,.08c0,0,0,0,0,0,0,0,.01,0,.02,.01,0,0,0,0,0,0,0,0,0,0,.01,0,0,0,0,0,.02,0,0,0,0,0,0,0,0,0,.01,0,.02,0,0,0,0,0,0,0,.03,0,.05,.01,.08,.01h1.14c.17,0,.32-.14,.32-.32v-7.07c0-.17-.14-.32-.32-.32"/>
    </g>
    <g id="g7974">
      <path id="path7976" class="cls-1" d="M10.19,15.6h-3.09v-5.62c0-.17-.14-.32-.32-.32h-1.14c-.17,0-.32,.14-.32,.32v7.07h0c0,.09,.03,.16,.09,.22,0,0,0,0,0,0,0,0,0,0,0,0,.06,.05,.13,.09,.22,.09h4.55c.17,0,.32-.14,.32-.32v-1.14c0-.17-.14-.32-.32-.32"/>
    </g>
    <g id="g7978">
      <path id="path7980" class="cls-1" d="M27.06,11.43c.17,0,.32-.14,.32-.32v-1.14c0-.17-.14-.32-.32-.32h-4.55c-.09,0-.16,.03-.22,.09,0,0,0,0,0,0,0,0,0,0,0,0-.05,.06-.09,.13-.09,.22h0v7.07h0c0,.09,.03,.16,.09,.22,0,0,0,0,0,0,0,0,0,0,0,0,.06,.05,.13,.09,.22,.09h4.55c.17,0,.32-.14,.32-.32v-1.14c0-.17-.14-.32-.32-.32h-3.09v-1.2h3.09c.17,0,.32-.14,.32-.32v-1.14c0-.17-.14-.32-.32-.32h-3.09v-1.2h3.09Z"/>
    </g>
  </g>
</svg>