<?xml version="1.0" encoding="UTF-8"?>
<svg id="_圖層_2" data-name="圖層 2" xmlns="http://www.w3.org/2000/svg" viewBox="0 0 2108.43 78.24">
  <defs>
    <style>
      .cls-1 {
        fill: #946134;
        opacity: .3;
      }
    </style>
  </defs>
  <g id="mainpic">
    <path class="cls-1" d="M2071.64,60.08c1.39,0,2.56-.48,3.52-1.44,1.01-1.01,1.55-2.21,1.6-3.6V10.24c0-1.28-.51-2.35-1.52-3.2-1.01-.91-2.21-1.36-3.6-1.36h-.96l-.08-.8h23.44c1.65,0,3.44-.16,5.36-.48,1.97-.32,3.36-.64,4.16-.96V13.52h-.8v-1.44c0-1.28-.45-2.37-1.36-3.28-.85-.91-1.89-1.39-3.12-1.44h-16.32v24.72h13.52c1.07-.05,1.97-.45,2.72-1.2,.75-.75,1.12-1.68,1.12-2.8v-1.12h.8v12.64h-.8v-1.2c0-1.07-.37-1.97-1.12-2.72-.69-.75-1.57-1.15-2.64-1.2h-13.6v23.92h11.44c3.95,0,6.96-.88,9.04-2.64,2.08-1.76,3.81-4.37,5.2-7.84h.8l-4.64,12.96h-33.2v-.8h1.04Zm-39.66,1.92c-8.43-.05-15.31-2.75-20.64-8.08-5.28-5.33-7.92-12.35-7.92-21.04s2.64-15.79,7.92-21.12c5.33-5.33,12.37-8,21.12-8,7.15,0,13.47,1.81,18.96,5.44l1.6,11.28h-.72c-1.17-4.59-3.55-8.11-7.12-10.56-3.57-2.51-7.81-3.76-12.72-3.76-6.99,0-12.59,2.43-16.8,7.28-4.16,4.85-6.24,11.28-6.24,19.28s2.05,14.45,6.16,19.36c4.16,4.85,9.63,7.36,16.4,7.52,5.97,0,10.96-1.63,14.96-4.88,4.32-3.52,6.93-9.25,7.84-17.2h.64l-.96,12.56c-4.85,7.95-12.35,11.92-22.48,11.92Zm-43.22-56.32c-1.33,0-2.48,.48-3.44,1.44-.96,.91-1.47,2.03-1.52,3.36V51.76c0,3.09,.19,6.03,.56,8.8l.16,1.44h-.72l-43.6-46.56V55.28c0,1.33,.48,2.48,1.44,3.44,.96,.91,2.11,1.36,3.44,1.36h1.52v.8h-16.48v-.8h1.52c1.33,0,2.48-.45,3.44-1.36,.96-.96,1.44-2.13,1.44-3.52V13.68c0-3.25-.19-6.16-.56-8.72l-.16-1.28h.8l43.6,46.56V10.56c-.05-1.39-.56-2.53-1.52-3.44-.96-.96-2.11-1.44-3.44-1.44h-1.52v-.8h16.48v.8h-1.44Zm-107.67,33.36h19.68l-9.6-25.68-10.08,25.68Zm39.36,21.04h.64v.8h-18v-.8h.72c1.12,0,1.95-.35,2.48-1.04,.59-.75,.88-1.44,.88-2.08s-.11-1.28-.32-1.92l-5.12-13.6h-21.6l-5.36,13.68c-.21,.64-.32,1.28-.32,1.92,0,.59,.27,1.25,.8,2,.59,.69,1.44,1.04,2.56,1.04h.72v.8h-16.08v-.8h.72c1.33,0,2.64-.43,3.92-1.28,1.28-.85,2.32-2.11,3.12-3.76l18.08-43.04c1.97-4.32,2.96-7.07,2.96-8.24h.72l21.44,51.28c.75,1.65,1.76,2.91,3.04,3.76,1.28,.85,2.61,1.28,4,1.28Zm-84.87,0c1.39,0,2.56-.48,3.52-1.44,1.01-1.01,1.55-2.21,1.6-3.6V10.64c-.05-1.39-.59-2.56-1.6-3.52-.96-.96-2.13-1.44-3.52-1.44h-1.04v-.8h17.52v.8h-1.04c-1.39,0-2.59,.48-3.6,1.44-.96,.96-1.47,2.13-1.52,3.52V55.04c0,1.39,.51,2.59,1.52,3.6,1.01,.96,2.21,1.44,3.6,1.44h1.04v.8h-17.52v-.8h1.04Zm-50.15,0c1.39,0,2.56-.48,3.52-1.44,1.01-1.01,1.55-2.21,1.6-3.6V10.72c-.05-1.39-.59-2.56-1.6-3.52-.96-1.01-2.13-1.52-3.52-1.52h-1.04v-.8h17.52v.8h-1.04c-1.92,0-3.39,.83-4.4,2.48-.48,.8-.72,1.65-.72,2.56V58.4h11.44c3.95,0,6.96-.88,9.04-2.64,2.08-1.76,3.81-4.37,5.2-7.84h.8l-4.64,12.96h-33.2v-.8h1.04Zm-50.15,0c1.39,0,2.56-.48,3.52-1.44,1.01-1.01,1.55-2.21,1.6-3.6V10.72c-.05-1.39-.59-2.56-1.6-3.52-.96-1.01-2.13-1.52-3.52-1.52h-1.04v-.8h17.52v.8h-1.04c-1.92,0-3.39,.83-4.4,2.48-.48,.8-.72,1.65-.72,2.56V58.4h11.44c3.95,0,6.96-.88,9.04-2.64,2.08-1.76,3.81-4.37,5.2-7.84h.8l-4.64,12.96h-33.2v-.8h1.04Zm-51.11-21.68h20.24l-6.32-18.64c-1.23-3.57-2.35-6.37-3.36-8.4l-10.56,27.04Zm-8.56-36.24c3.47-1.44,6.8-2.16,10-2.16,2.67,0,5.41,.99,8.24,2.96,1.55,1.07,3.28,3.15,5.2,6.24,1.28,2.13,2.91,6,4.88,11.6l9.76,27.68c2.24,6.19,4.51,11.09,6.8,14.72,2.35,3.68,4.48,6.43,6.4,8.24,1.92,1.87,3.92,3.17,6,3.92,2.08,.75,3.79,1.12,5.12,1.12s2.61-.11,3.68-.32l.08,.8c-2.56,.85-5.07,1.28-7.52,1.28s-4.91-.64-7.36-1.92c-2.45-1.23-4.75-2.96-6.88-5.2-4.59-4.64-8.48-11.71-11.68-21.2l-3.12-9.12h-21.92l-5.52,14.24c-.27,.64-.4,1.28-.4,1.92s.27,1.33,.8,2.08c.59,.69,1.47,1.04,2.64,1.04h.64v.8h-16.08v-.8h.72c1.28,0,2.53-.37,3.76-1.12,1.23-.8,2.24-1.97,3.04-3.52l19.84-47.52c-2.88-4.11-6.45-6.16-10.72-6.16-1.92,0-3.97,.4-6.16,1.2l-.24-.8Zm-82.65,57.92c1.39,0,2.56-.48,3.52-1.44,1.01-1.01,1.55-2.21,1.6-3.6V10.24c0-1.28-.51-2.35-1.52-3.2-1.01-.91-2.21-1.36-3.6-1.36h-.96l-.08-.8h23.44c1.65,0,3.44-.16,5.36-.48,1.97-.32,3.36-.64,4.16-.96V13.52h-.8v-1.44c0-1.28-.45-2.37-1.36-3.28-.85-.91-1.89-1.39-3.12-1.44h-16.32v24.72h13.52c1.07-.05,1.97-.45,2.72-1.2,.75-.75,1.12-1.68,1.12-2.8v-1.12h.8v12.64h-.8v-1.2c0-1.07-.37-1.97-1.12-2.72-.69-.75-1.57-1.15-2.64-1.2h-13.6v23.92h11.44c3.95,0,6.96-.88,9.04-2.64,2.08-1.76,3.81-4.37,5.2-7.84h.8l-4.64,12.96h-33.2v-.8h1.04Zm-40.52,1.92c-8.53-.05-15.47-2.75-20.8-8.08-5.28-5.33-7.92-12.35-7.92-21.04s2.64-15.71,7.92-21.04c5.33-5.39,12.27-8.08,20.8-8.08,7.36,0,13.84,1.81,19.44,5.44l1.6,11.28h-.72c-1.17-4.59-3.55-8.11-7.12-10.56-3.52-2.51-7.92-3.76-13.2-3.76-6.77,0-12.27,2.45-16.48,7.36-4.16,4.91-6.24,11.36-6.24,19.36s2.08,14.45,6.24,19.36c4.21,4.85,9.71,7.31,16.48,7.36,3.47,0,6.75-.61,9.84-1.84,3.15-1.23,5.89-2.93,8.24-5.12v-14.16c0-1.17-.37-2.05-1.12-2.64-.69-.64-1.68-.96-2.96-.96h-1.28v-.8h15.68v.8h-1.2c-1.33,0-2.35,.32-3.04,.96-.69,.59-1.01,1.47-.96,2.64v13.2c-1.39,1.81-3.04,3.44-4.96,4.88s-4.51,2.72-7.76,3.84c-3.2,1.07-6.69,1.6-10.48,1.6Zm-78.69-1.92c1.39,0,2.56-.48,3.52-1.44,1.01-1.01,1.55-2.21,1.6-3.6V10.24c0-1.28-.51-2.35-1.52-3.2-1.01-.91-2.21-1.36-3.6-1.36h-.96l-.08-.8h23.44c1.65,0,3.44-.16,5.36-.48,1.97-.32,3.36-.64,4.16-.96V13.52h-.8v-1.44c0-1.28-.45-2.37-1.36-3.28-.85-.91-1.89-1.39-3.12-1.44h-16.32v24.72h13.52c1.07-.05,1.97-.45,2.72-1.2,.75-.75,1.12-1.68,1.12-2.8v-1.12h.8v12.64h-.8v-1.2c0-1.07-.37-1.97-1.12-2.72-.69-.75-1.57-1.15-2.64-1.2h-13.6v23.92h11.44c3.95,0,6.96-.88,9.04-2.64,2.08-1.76,3.81-4.37,5.2-7.84h.8l-4.64,12.96h-33.2v-.8h1.04Zm-50.15,0c1.39,0,2.56-.48,3.52-1.44,1.01-1.01,1.55-2.21,1.6-3.6V10.72c-.05-1.39-.59-2.56-1.6-3.52-.96-1.01-2.13-1.52-3.52-1.52h-1.04v-.8h17.52v.8h-1.04c-1.92,0-3.39,.83-4.4,2.48-.48,.8-.72,1.65-.72,2.56V58.4h11.44c3.95,0,6.96-.88,9.04-2.64,2.08-1.76,3.81-4.37,5.2-7.84h.8l-4.64,12.96h-33.2v-.8h1.04Zm-50.15,0c1.39,0,2.56-.48,3.52-1.44,1.01-1.01,1.55-2.21,1.6-3.6V10.72c-.05-1.39-.59-2.56-1.6-3.52-.96-1.01-2.13-1.52-3.52-1.52h-1.04v-.8h17.52v.8h-1.04c-1.92,0-3.39,.83-4.4,2.48-.48,.8-.72,1.65-.72,2.56V58.4h11.44c3.95,0,6.96-.88,9.04-2.64,2.08-1.76,3.81-4.37,5.2-7.84h.8l-4.64,12.96h-33.2v-.8h1.04Zm-62.41-7.84c4.53,4.91,10.48,7.36,17.84,7.36s13.28-2.45,17.76-7.36c4.53-4.91,6.8-11.36,6.8-19.36s-2.27-14.45-6.8-19.36c-4.48-4.91-10.4-7.36-17.76-7.36s-13.31,2.45-17.84,7.36c-4.48,4.91-6.72,11.36-6.72,19.36s2.24,14.45,6.72,19.36Zm-4.32-40.4c5.71-5.39,13.09-8.08,22.16-8.08s16.53,2.69,22.24,8.08c5.71,5.33,8.56,12.35,8.56,21.04s-2.85,15.73-8.56,21.12c-5.71,5.33-13.12,8-22.24,8s-16.45-2.67-22.16-8c-5.71-5.39-8.56-12.43-8.56-21.12s2.85-15.71,8.56-21.04Zm-22.06,20.96c0,9.17-2.48,16.35-7.44,21.52-4.91,5.12-11.87,7.68-20.88,7.68-6.08,0-11.57-1.28-16.48-3.84-4.85-2.56-8.64-6.05-11.36-10.48-2.67-4.43-4-9.36-4-14.8s1.33-10.45,4-14.88,6.35-7.89,11.04-10.4c4.69-2.56,9.92-3.84,15.68-3.84,3.63,0,7.31,.51,11.04,1.52,3.79,.96,6.93,2.27,9.44,3.92l1.6,11.28h-.72c-1.12-4.48-3.71-7.97-7.76-10.48-4.05-2.56-8.56-3.84-13.52-3.84-7.09,0-13.01,2.53-17.76,7.6-4.69,5.01-7.04,11.33-7.04,18.96s2.43,14.03,7.28,19.2c4.91,5.12,11.31,7.68,19.2,7.68s14.32-2.56,19.28-7.68c5.01-5.12,7.52-12.13,7.52-21.04h.8c.05,.64,.08,1.28,.08,1.92Zm-101.59-27.12c-1.33,0-2.48,.48-3.44,1.44-.96,.91-1.47,2.03-1.52,3.36V51.76c0,3.09,.19,6.03,.56,8.8l.16,1.44h-.72l-43.6-46.56V55.28c0,1.33,.48,2.48,1.44,3.44,.96,.91,2.11,1.36,3.44,1.36h1.52v.8h-16.48v-.8h1.52c1.33,0,2.48-.45,3.44-1.36,.96-.96,1.44-2.13,1.44-3.52V13.68c0-3.25-.19-6.16-.56-8.72l-.16-1.28h.8l43.6,46.56V10.56c-.05-1.39-.56-2.53-1.52-3.44-.96-.96-2.11-1.44-3.44-1.44h-1.52v-.8h16.48v.8h-1.44Zm-120.37,46.56c4.53,4.91,10.48,7.36,17.84,7.36s13.28-2.45,17.76-7.36c4.53-4.91,6.8-11.36,6.8-19.36s-2.27-14.45-6.8-19.36c-4.48-4.91-10.4-7.36-17.76-7.36s-13.31,2.45-17.84,7.36c-4.48,4.91-6.72,11.36-6.72,19.36s2.24,14.45,6.72,19.36Zm-4.32-40.4c5.71-5.39,13.09-8.08,22.16-8.08s16.53,2.69,22.24,8.08c5.71,5.33,8.56,12.35,8.56,21.04s-2.85,15.73-8.56,21.12c-5.71,5.33-13.12,8-22.24,8s-16.45-2.67-22.16-8c-5.71-5.39-8.56-12.43-8.56-21.12s2.85-15.71,8.56-21.04Zm-37.79,48.24c1.39,0,2.56-.48,3.52-1.44,1.01-1.01,1.55-2.21,1.6-3.6V10.64c-.05-1.39-.59-2.56-1.6-3.52-.96-.96-2.13-1.44-3.52-1.44h-1.04v-.8h17.52v.8h-1.04c-1.39,0-2.59,.48-3.6,1.44-.96,.96-1.47,2.13-1.52,3.52V55.04c0,1.39,.51,2.59,1.52,3.6,1.01,.96,2.21,1.44,3.6,1.44h1.04v.8h-17.52v-.8h1.04Zm-14.57-48.08c0-1.28-.45-2.37-1.36-3.28-.91-.96-1.97-1.47-3.2-1.52h-15.2V55.12c.05,1.39,.56,2.56,1.52,3.52,1.01,.96,2.21,1.44,3.6,1.44h1.04v.8h-17.52v-.8h1.04c1.39,0,2.56-.48,3.52-1.44,1.01-.96,1.55-2.11,1.6-3.44V7.2h-15.2c-1.28,.05-2.37,.56-3.28,1.52-.85,.91-1.28,2-1.28,3.28v1.36l-.8,.08V3.36c.8,.32,2.19,.64,4.16,.96,1.97,.32,3.79,.48,5.44,.48h27.04c2.61,0,4.77-.19,6.48-.56,1.76-.43,2.83-.72,3.2-.88V13.44l-.8-.08v-1.36Zm-86.93,27.04h19.68l-9.6-25.68-10.08,25.68Zm39.36,21.04h.64v.8h-18v-.8h.72c1.12,0,1.95-.35,2.48-1.04,.59-.75,.88-1.44,.88-2.08s-.11-1.28-.32-1.92l-5.12-13.6h-21.6l-5.36,13.68c-.21,.64-.32,1.28-.32,1.92,0,.59,.27,1.25,.8,2,.59,.69,1.44,1.04,2.56,1.04h.72v.8h-16.08v-.8h.72c1.33,0,2.64-.43,3.92-1.28,1.28-.85,2.32-2.11,3.12-3.76l18.08-43.04c1.97-4.32,2.96-7.07,2.96-8.24h.72l21.44,51.28c.75,1.65,1.76,2.91,3.04,3.76,1.28,.85,2.61,1.28,4,1.28Zm-91.1,1.92c-8.43-.05-15.31-2.75-20.64-8.08-5.28-5.33-7.92-12.35-7.92-21.04s2.64-15.79,7.92-21.12c5.33-5.33,12.37-8,21.12-8,7.15,0,13.47,1.81,18.96,5.44l1.6,11.28h-.72c-1.17-4.59-3.55-8.11-7.12-10.56-3.57-2.51-7.81-3.76-12.72-3.76-6.99,0-12.59,2.43-16.8,7.28-4.16,4.85-6.24,11.28-6.24,19.28s2.05,14.45,6.16,19.36c4.16,4.85,9.63,7.36,16.4,7.52,5.97,0,10.96-1.63,14.96-4.88,4.32-3.52,6.93-9.25,7.84-17.2h.64l-.96,12.56c-4.85,7.95-12.35,11.92-22.48,11.92Zm-42.6-56.32h-1.28c-1.12,0-2.11,.37-2.96,1.12-.8,.69-1.23,1.57-1.28,2.64v31.68c0,6.24-1.97,11.28-5.92,15.12-3.95,3.84-9.2,5.76-15.76,5.76s-11.89-1.89-16-5.68c-4.05-3.84-6.08-8.88-6.08-15.12V9.68c0-1.6-.69-2.77-2.08-3.52-.64-.32-1.36-.48-2.16-.48h-1.28v-.8h16.24v.8h-1.28c-1.17,0-2.16,.37-2.96,1.12-.8,.69-1.23,1.6-1.28,2.72v30.56c0,5.81,1.55,10.51,4.64,14.08,3.15,3.57,7.33,5.36,12.56,5.36s9.47-1.68,12.72-5.04c3.25-3.41,4.88-7.87,4.88-13.36V9.52c-.05-1.12-.48-2.03-1.28-2.72-.8-.75-1.79-1.12-2.96-1.12h-1.28v-.8h14.8v.8Zm-112.4,1.6V58.48h15.76c4.48,0,8.43-1.07,11.84-3.2,3.47-2.13,6.13-5.12,8-8.96,1.92-3.89,2.88-8.37,2.88-13.44,0-7.68-2.11-13.87-6.32-18.56-4.16-4.69-9.63-7.04-16.4-7.04h-15.76Zm15.76-2.4c8.53,0,15.44,2.59,20.72,7.76,5.33,5.12,8,11.87,8,20.24s-2.67,15.15-8,20.32c-5.28,5.12-12.19,7.68-20.72,7.68h-27.12v-.8h1.04c1.39,0,2.56-.48,3.52-1.44,1.01-1.01,1.55-2.21,1.6-3.6V10.24c0-1.28-.53-2.35-1.6-3.2-1.01-.91-2.19-1.36-3.52-1.36h-.96l-.08-.8h27.12Zm-80.29,55.2c1.39,0,2.56-.48,3.52-1.44,1.01-1.01,1.55-2.21,1.6-3.6V10.24c0-1.28-.51-2.35-1.52-3.2-1.01-.91-2.21-1.36-3.6-1.36h-.96l-.08-.8h16.24c1.65,0,3.44-.16,5.36-.48,1.97-.32,3.36-.64,4.16-.96V13.52h-.8v-1.44c0-1.28-.45-2.37-1.36-3.28-.85-.91-1.89-1.39-3.12-1.44h-9.12v24.72h15.2c1.07-.05,1.97-.45,2.72-1.2,.75-.75,1.12-1.68,1.12-2.8v-1.12h.8v12.64h-.8v-1.2c0-1.07-.37-1.97-1.12-2.72-.69-.75-1.57-1.15-2.64-1.2h-15.28v23.92h17.04c3.95,0,6.96-.88,9.04-2.64,2.08-1.76,3.81-4.37,5.2-7.84h.8l-4.64,12.96h-38.8v-.8h1.04Zm-71.81-2.48c-.16-.75-.24-2.19-.24-4.32s.4-4.4,1.2-6.8h.72c-.05,.59-.08,1.17-.08,1.76,0,3.25,.99,5.97,2.96,8.16,1.97,2.13,4.59,3.2,7.84,3.2s6.11-1.01,8.24-3.04c2.19-2.03,3.28-4.56,3.28-7.6s-1.04-5.6-3.12-7.52l-15.36-14.24c-2.88-2.67-4.32-5.89-4.32-9.68s1.25-7.01,3.76-9.68c2.56-2.72,6-4.08,10.32-4.08,2.03,0,4.32,.27,6.88,.8h3.12V14.4h-.72c0-2.51-.88-4.51-2.64-6-1.71-1.49-3.92-2.24-6.64-2.24s-5.01,.91-6.88,2.72c-1.81,1.81-2.72,4.08-2.72,6.8s1.07,5.07,3.2,7.04l15.76,14.56c2.67,2.45,4,5.81,4,10.08s-1.36,7.79-4.08,10.56c-2.72,2.72-6.35,4.08-10.88,4.08-2.35,0-4.85-.37-7.52-1.12-2.61-.69-4.64-1.79-6.08-3.28Zm-13.61-45.6c0-1.28-.45-2.37-1.36-3.28-.91-.96-1.97-1.47-3.2-1.52h-15.2V55.12c.05,1.39,.56,2.56,1.52,3.52,1.01,.96,2.21,1.44,3.6,1.44h1.04v.8h-17.52v-.8h1.04c1.39,0,2.56-.48,3.52-1.44,1.01-.96,1.55-2.11,1.6-3.44V7.2h-15.2c-1.28,.05-2.37,.56-3.28,1.52-.85,.91-1.28,2-1.28,3.28v1.36l-.8,.08V3.36c.8,.32,2.19,.64,4.16,.96,1.97,.32,3.79,.48,5.44,.48h27.04c2.61,0,4.77-.19,6.48-.56,1.76-.43,2.83-.72,3.2-.88V13.44l-.8-.08v-1.36Zm-82.01-4.64h-5.12V55.04c0,1.39,.48,2.59,1.44,3.6,1.01,.96,2.24,1.44,3.68,1.44h.96l.08,.8h-17.52v-.8h1.04c1.39,0,2.56-.48,3.52-1.44,1.01-.96,1.55-2.13,1.6-3.52V10.72c-.05-1.39-.59-2.56-1.6-3.52-.96-1.01-2.13-1.52-3.52-1.52h-1.04v-.8h21.6c4.85,0,8.67,1.36,11.44,4.08,2.77,2.67,4.16,6.16,4.16,10.48s-1.33,7.97-4,11.12c-2.61,3.09-5.81,4.64-9.6,4.64,.8,.37,1.73,1.12,2.8,2.24,1.12,1.07,2.11,2.19,2.96,3.36,4.59,6.56,7.57,10.61,8.96,12.16,1.39,1.49,2.37,2.53,2.96,3.12,.59,.53,1.23,1.07,1.92,1.6,.69,.53,1.39,.96,2.08,1.28,1.55,.75,3.2,1.12,4.96,1.12v.8h-4.4c-2.29,0-4.43-.4-6.4-1.2-1.97-.85-3.47-1.71-4.48-2.56-.96-.91-1.81-1.76-2.56-2.56-.69-.85-2.67-3.63-5.92-8.32s-5.15-7.36-5.68-8c-.53-.69-1.09-1.36-1.68-2-1.71-1.81-3.41-2.72-5.12-2.72v-.8c.43,.05,.99,.08,1.68,.08s1.55-.03,2.56-.08c6.61-.16,10.77-2.93,12.48-8.32,.32-1.07,.48-2.05,.48-2.96v-1.84c-.11-3.57-1.04-6.45-2.8-8.64-1.76-2.19-4.13-3.36-7.12-3.52-1.28-.05-2.88-.08-4.8-.08Zm-66.55,31.04h20.24l-6.32-18.64c-1.23-3.57-2.35-6.37-3.36-8.4l-10.56,27.04Zm-8.56-36.24c3.47-1.44,6.8-2.16,10-2.16,2.67,0,5.41,.99,8.24,2.96,1.55,1.07,3.28,3.15,5.2,6.24,1.28,2.13,2.91,6,4.88,11.6l9.76,27.68c2.24,6.19,4.51,11.09,6.8,14.72,2.35,3.68,4.48,6.43,6.4,8.24,1.92,1.87,3.92,3.17,6,3.92,2.08,.75,3.79,1.12,5.12,1.12s2.61-.11,3.68-.32l.08,.8c-2.56,.85-5.07,1.28-7.52,1.28s-4.91-.64-7.36-1.92c-2.45-1.23-4.75-2.96-6.88-5.2-4.59-4.64-8.48-11.71-11.68-21.2l-3.12-9.12h-21.92l-5.52,14.24c-.27,.64-.4,1.28-.4,1.92s.27,1.33,.8,2.08c.59,.69,1.47,1.04,2.64,1.04h.64v.8h-16.08v-.8h.72c1.28,0,2.53-.37,3.76-1.12,1.23-.8,2.24-1.97,3.04-3.52l19.84-47.52c-2.88-4.11-6.45-6.16-10.72-6.16-1.92,0-3.97,.4-6.16,1.2l-.24-.8Zm-47.35,3.52c-1.33,0-2.48,.48-3.44,1.44-.96,.91-1.47,2.03-1.52,3.36V51.76c0,3.09,.19,6.03,.56,8.8l.16,1.44h-.72l-43.6-46.56V55.28c0,1.33,.48,2.48,1.44,3.44,.96,.91,2.11,1.36,3.44,1.36h1.52v.8h-16.48v-.8h1.52c1.33,0,2.48-.45,3.44-1.36,.96-.96,1.44-2.13,1.44-3.52V13.68c0-3.25-.19-6.16-.56-8.72l-.16-1.28h.8l43.6,46.56V10.56c-.05-1.39-.56-2.53-1.52-3.44-.96-.96-2.11-1.44-3.44-1.44h-1.52v-.8h16.48v.8h-1.44Zm-107.67,33.36h19.68l-9.6-25.68-10.08,25.68Zm39.36,21.04h.64v.8h-18v-.8h.72c1.12,0,1.95-.35,2.48-1.04,.59-.75,.88-1.44,.88-2.08s-.11-1.28-.32-1.92l-5.12-13.6h-21.6l-5.36,13.68c-.21,.64-.32,1.28-.32,1.92,0,.59,.27,1.25,.8,2,.59,.69,1.44,1.04,2.56,1.04h.72v.8h-16.08v-.8h.72c1.33,0,2.64-.43,3.92-1.28,1.28-.85,2.32-2.11,3.12-3.76l18.08-43.04c1.97-4.32,2.96-7.07,2.96-8.24h.72l21.44,51.28c.75,1.65,1.76,2.91,3.04,3.76,1.28,.85,2.61,1.28,4,1.28ZM217.81,4.88h15.76v.8h-.64c-1.39,0-2.77,.43-4.16,1.28-1.33,.8-2.29,2.03-2.88,3.68l-13.28,42.32c-1.07,3.36-1.65,6.32-1.76,8.88h-.72l-16.32-45.76-12.16,36.88c-1.01,3.31-1.57,6.27-1.68,8.88h-.72l-18.16-51.28c-.64-1.6-1.63-2.8-2.96-3.6-1.33-.85-2.69-1.28-4.08-1.28h-.64v-.8h17.76v.8h-.72c-1.12,0-1.97,.37-2.56,1.12-.53,.69-.8,1.36-.8,2s.08,1.23,.24,1.76l12.16,38.96L194.37,3.6l.72,.08,15.76,44.24,10.72-37.44c.16-.59,.24-1.17,.24-1.76,0-.64-.27-1.31-.8-2-.53-.69-1.36-1.04-2.48-1.04h-.72v-.8ZM126.54,60.08c1.39,0,2.56-.48,3.52-1.44,1.01-1.01,1.55-2.21,1.6-3.6V10.64c-.05-1.39-.59-2.56-1.6-3.52-.96-.96-2.13-1.44-3.52-1.44h-1.04v-.8h17.52v.8h-1.04c-1.39,0-2.59,.48-3.6,1.44-.96,.96-1.47,2.13-1.52,3.52V55.04c0,1.39,.51,2.59,1.52,3.6,1.01,.96,2.21,1.44,3.6,1.44h1.04v.8h-17.52v-.8h1.04Zm-51.27-21.04h19.68l-9.6-25.68-10.08,25.68Zm39.36,21.04h.64v.8h-18v-.8h.72c1.12,0,1.95-.35,2.48-1.04,.59-.75,.88-1.44,.88-2.08s-.11-1.28-.32-1.92l-5.12-13.6h-21.6l-5.36,13.68c-.21,.64-.32,1.28-.32,1.92,0,.59,.27,1.25,.8,2,.59,.69,1.44,1.04,2.56,1.04h.72v.8h-16.08v-.8h.72c1.33,0,2.64-.43,3.92-1.28,1.28-.85,2.32-2.11,3.12-3.76L82.47,12c1.97-4.32,2.96-7.07,2.96-8.24h.72l21.44,51.28c.75,1.65,1.76,2.91,3.04,3.76,1.28,.85,2.61,1.28,4,1.28ZM2.48,20.8c-1.65-1.97-2.48-3.92-2.48-5.84s.45-3.65,1.36-5.04c.91-1.44,2.37-2.64,4.4-3.6,2.03-1.01,4.32-1.52,6.88-1.52H45.44c1.65,0,3.47-.16,5.44-.48,2.03-.32,3.44-.64,4.24-.96V13.44l-.8-.08v-1.36c0-1.28-.45-2.37-1.36-3.28-.91-.96-1.97-1.47-3.2-1.52h-15.2V55.12c.05,1.92,.91,3.36,2.56,4.32,.8,.43,1.65,.64,2.56,.64h1.04v.8H23.2v-.8h1.04c1.39,0,2.56-.48,3.52-1.44,1.01-.96,1.55-2.11,1.6-3.44V7.2H12.64c-4.27,0-7.36,1.36-9.28,4.08-1.01,1.39-1.52,2.85-1.52,4.4s.43,3.07,1.28,4.72l-.64,.4Z"/>
  </g>
</svg>