<?xml version="1.0" encoding="UTF-8"?>
<svg id="_圖層_2" data-name="圖層 2" xmlns="http://www.w3.org/2000/svg" viewBox="0 0 2899.1 107.58">
  <defs>
    <style>
      .cls-1 {
        fill: #946134;
        opacity: .3;
      }
    </style>
  </defs>
  <g id="mainpic">
    <path class="cls-1" d="M2848.5,82.61c1.91,0,3.52-.66,4.84-1.98,1.39-1.39,2.13-3.04,2.2-4.95V14.08c0-1.76-.7-3.23-2.09-4.4-1.39-1.25-3.04-1.87-4.95-1.87h-1.32l-.11-1.1h32.23c2.27,0,4.73-.22,7.37-.66,2.71-.44,4.62-.88,5.72-1.32v13.86h-1.1v-1.98c0-1.76-.62-3.26-1.87-4.51-1.17-1.25-2.6-1.91-4.29-1.98h-22.44V44.11h18.59c1.47-.07,2.71-.62,3.74-1.65s1.54-2.31,1.54-3.85v-1.54h1.1v17.38h-1.1v-1.65c0-1.47-.51-2.71-1.54-3.74-.95-1.03-2.16-1.58-3.63-1.65h-18.7v32.89h15.73c5.43,0,9.57-1.21,12.43-3.63,2.86-2.42,5.24-6.01,7.15-10.78h1.1l-6.38,17.82h-45.65v-1.1h1.43Zm-54.53,2.64c-11.59-.07-21.05-3.78-28.38-11.11-7.26-7.33-10.89-16.98-10.89-28.93s3.63-21.71,10.89-29.04c7.33-7.33,17.01-11,29.04-11,9.83,0,18.52,2.49,26.07,7.48l2.2,15.51h-.99c-1.61-6.31-4.88-11.15-9.79-14.52-4.91-3.45-10.74-5.17-17.49-5.17-9.61,0-17.31,3.34-23.1,10.01-5.72,6.67-8.58,15.51-8.58,26.51s2.82,19.87,8.47,26.62c5.72,6.67,13.24,10.12,22.55,10.34,8.21,0,15.07-2.24,20.57-6.71,5.94-4.84,9.53-12.72,10.78-23.65h.88l-1.32,17.27c-6.67,10.93-16.98,16.39-30.91,16.39Zm-59.43-77.44c-1.83,0-3.41,.66-4.73,1.98-1.32,1.25-2.02,2.79-2.09,4.62v56.76c0,4.25,.26,8.29,.77,12.1l.22,1.98h-.99l-59.95-64.02v54.78c0,1.83,.66,3.41,1.98,4.73,1.32,1.25,2.9,1.87,4.73,1.87h2.09v1.1h-22.66v-1.1h2.09c1.83,0,3.41-.62,4.73-1.87,1.32-1.32,1.98-2.93,1.98-4.84V18.81c0-4.47-.26-8.47-.77-11.99l-.22-1.76h1.1l59.95,64.02V14.52c-.07-1.91-.77-3.48-2.09-4.73-1.32-1.32-2.9-1.98-4.73-1.98h-2.09v-1.1h22.66v1.1h-1.98Zm-148.05,45.87h27.06l-13.2-35.31-13.86,35.31Zm54.12,28.93h.88v1.1h-24.75v-1.1h.99c1.54,0,2.68-.48,3.41-1.43,.81-1.03,1.21-1.98,1.21-2.86s-.15-1.76-.44-2.64l-7.04-18.7h-29.7l-7.37,18.81c-.29,.88-.44,1.76-.44,2.64,0,.81,.37,1.72,1.1,2.75,.81,.95,1.98,1.43,3.52,1.43h.99v1.1h-22.11v-1.1h.99c1.83,0,3.63-.59,5.39-1.76,1.76-1.17,3.19-2.9,4.29-5.17l24.86-59.18c2.71-5.94,4.07-9.72,4.07-11.33h.99l29.48,70.51c1.03,2.27,2.42,4,4.18,5.17,1.76,1.17,3.59,1.76,5.5,1.76Zm-116.7,0c1.91,0,3.52-.66,4.84-1.98,1.39-1.39,2.13-3.04,2.2-4.95V14.63c-.07-1.91-.81-3.52-2.2-4.84-1.32-1.32-2.93-1.98-4.84-1.98h-1.43v-1.1h24.09v1.1h-1.43c-1.91,0-3.56,.66-4.95,1.98-1.32,1.32-2.02,2.93-2.09,4.84v61.05c0,1.91,.7,3.56,2.09,4.95,1.39,1.32,3.04,1.98,4.95,1.98h1.43v1.1h-24.09v-1.1h1.43Zm-68.96,0c1.91,0,3.52-.66,4.84-1.98,1.39-1.39,2.13-3.04,2.2-4.95V14.74c-.07-1.91-.81-3.52-2.2-4.84-1.32-1.39-2.93-2.09-4.84-2.09h-1.43v-1.1h24.09v1.1h-1.43c-2.64,0-4.66,1.14-6.05,3.41-.66,1.1-.99,2.27-.99,3.52V80.3h15.73c5.43,0,9.57-1.21,12.43-3.63,2.86-2.42,5.24-6.01,7.15-10.78h1.1l-6.38,17.82h-45.65v-1.1h1.43Zm-68.96,0c1.91,0,3.52-.66,4.84-1.98,1.39-1.39,2.13-3.04,2.2-4.95V14.74c-.07-1.91-.81-3.52-2.2-4.84-1.32-1.39-2.93-2.09-4.84-2.09h-1.43v-1.1h24.09v1.1h-1.43c-2.64,0-4.66,1.14-6.05,3.41-.66,1.1-.99,2.27-.99,3.52V80.3h15.73c5.43,0,9.57-1.21,12.43-3.63,2.86-2.42,5.24-6.01,7.15-10.78h1.1l-6.38,17.82h-45.65v-1.1h1.43Zm-70.28-29.81h27.83l-8.69-25.63c-1.69-4.91-3.23-8.76-4.62-11.55l-14.52,37.18Zm-11.77-49.83c4.77-1.98,9.35-2.97,13.75-2.97,3.67,0,7.44,1.36,11.33,4.07,2.13,1.47,4.51,4.33,7.15,8.58,1.76,2.93,4,8.25,6.71,15.95l13.42,38.06c3.08,8.51,6.2,15.25,9.35,20.24,3.23,5.06,6.16,8.84,8.8,11.33,2.64,2.57,5.39,4.36,8.25,5.39,2.86,1.03,5.21,1.54,7.04,1.54s3.59-.15,5.06-.44l.11,1.1c-3.52,1.17-6.97,1.76-10.34,1.76s-6.75-.88-10.12-2.64c-3.37-1.69-6.53-4.07-9.46-7.15-6.31-6.38-11.66-16.1-16.06-29.15l-4.29-12.54h-30.14l-7.59,19.58c-.37,.88-.55,1.76-.55,2.64s.37,1.83,1.1,2.86c.81,.95,2.02,1.43,3.63,1.43h.88v1.1h-22.11v-1.1h.99c1.76,0,3.48-.51,5.17-1.54,1.69-1.1,3.08-2.71,4.18-4.84l27.28-65.34c-3.96-5.65-8.87-8.47-14.74-8.47-2.64,0-5.46,.55-8.47,1.65l-.33-1.1Zm-113.65,79.64c1.91,0,3.52-.66,4.84-1.98,1.39-1.39,2.13-3.04,2.2-4.95V14.08c0-1.76-.7-3.23-2.09-4.4-1.39-1.25-3.04-1.87-4.95-1.87h-1.32l-.11-1.1h32.23c2.27,0,4.73-.22,7.37-.66,2.71-.44,4.62-.88,5.72-1.32v13.86h-1.1v-1.98c0-1.76-.62-3.26-1.87-4.51-1.17-1.25-2.6-1.91-4.29-1.98h-22.44V44.11h18.59c1.47-.07,2.71-.62,3.74-1.65s1.54-2.31,1.54-3.85v-1.54h1.1v17.38h-1.1v-1.65c0-1.47-.51-2.71-1.54-3.74-.95-1.03-2.16-1.58-3.63-1.65h-18.7v32.89h15.73c5.43,0,9.57-1.21,12.43-3.63,2.86-2.42,5.24-6.01,7.15-10.78h1.1l-6.38,17.82h-45.65v-1.1h1.43Zm-55.71,2.64c-11.73-.07-21.27-3.78-28.6-11.11-7.26-7.33-10.89-16.98-10.89-28.93s3.63-21.6,10.89-28.93c7.33-7.41,16.87-11.11,28.6-11.11,10.12,0,19.03,2.49,26.73,7.48l2.2,15.51h-.99c-1.61-6.31-4.88-11.15-9.79-14.52-4.84-3.45-10.89-5.17-18.15-5.17-9.31,0-16.87,3.37-22.66,10.12-5.72,6.75-8.58,15.62-8.58,26.62s2.86,19.87,8.58,26.62c5.79,6.67,13.35,10.05,22.66,10.12,4.77,0,9.28-.84,13.53-2.53,4.33-1.69,8.1-4.03,11.33-7.04v-19.47c0-1.61-.51-2.82-1.54-3.63-.95-.88-2.31-1.32-4.07-1.32h-1.76v-1.1h21.56v1.1h-1.65c-1.83,0-3.23,.44-4.18,1.32-.95,.81-1.39,2.02-1.32,3.63v18.15c-1.91,2.49-4.18,4.73-6.82,6.71-2.64,1.98-6.2,3.74-10.67,5.28-4.4,1.47-9.2,2.2-14.41,2.2Zm-108.2-2.64c1.91,0,3.52-.66,4.84-1.98,1.39-1.39,2.13-3.04,2.2-4.95V14.08c0-1.76-.7-3.23-2.09-4.4-1.39-1.25-3.04-1.87-4.95-1.87h-1.32l-.11-1.1h32.23c2.27,0,4.73-.22,7.37-.66,2.71-.44,4.62-.88,5.72-1.32v13.86h-1.1v-1.98c0-1.76-.62-3.26-1.87-4.51-1.17-1.25-2.6-1.91-4.29-1.98h-22.44V44.11h18.59c1.47-.07,2.71-.62,3.74-1.65,1.03-1.03,1.54-2.31,1.54-3.85v-1.54h1.1v17.38h-1.1v-1.65c0-1.47-.51-2.71-1.54-3.74-.95-1.03-2.16-1.58-3.63-1.65h-18.7v32.89h15.73c5.43,0,9.57-1.21,12.43-3.63,2.86-2.42,5.24-6.01,7.15-10.78h1.1l-6.38,17.82h-45.65v-1.1h1.43Zm-68.96,0c1.91,0,3.52-.66,4.84-1.98,1.39-1.39,2.13-3.04,2.2-4.95V14.74c-.07-1.91-.81-3.52-2.2-4.84-1.32-1.39-2.93-2.09-4.84-2.09h-1.43v-1.1h24.09v1.1h-1.43c-2.64,0-4.66,1.14-6.05,3.41-.66,1.1-.99,2.27-.99,3.52V80.3h15.73c5.43,0,9.57-1.21,12.43-3.63,2.86-2.42,5.24-6.01,7.15-10.78h1.1l-6.38,17.82h-45.65v-1.1h1.43Zm-68.96,0c1.91,0,3.52-.66,4.84-1.98,1.39-1.39,2.13-3.04,2.2-4.95V14.74c-.07-1.91-.81-3.52-2.2-4.84-1.32-1.39-2.93-2.09-4.84-2.09h-1.43v-1.1h24.09v1.1h-1.43c-2.64,0-4.66,1.14-6.05,3.41-.66,1.1-.99,2.27-.99,3.52V80.3h15.73c5.43,0,9.57-1.21,12.43-3.63,2.86-2.42,5.24-6.01,7.15-10.78h1.1l-6.38,17.82h-45.65v-1.1h1.43Zm-85.81-10.78c6.23,6.75,14.41,10.12,24.53,10.12s18.26-3.37,24.42-10.12c6.23-6.75,9.35-15.62,9.35-26.62s-3.12-19.87-9.35-26.62c-6.16-6.75-14.3-10.12-24.42-10.12s-18.3,3.37-24.53,10.12c-6.16,6.75-9.24,15.62-9.24,26.62s3.08,19.87,9.24,26.62Zm-5.94-55.55c7.85-7.41,18-11.11,30.47-11.11s22.73,3.7,30.58,11.11c7.85,7.33,11.77,16.98,11.77,28.93s-3.92,21.63-11.77,29.04c-7.85,7.33-18.04,11-30.58,11s-22.62-3.67-30.47-11c-7.85-7.41-11.77-17.09-11.77-29.04s3.92-21.6,11.77-28.93Zm-30.33,28.82c0,12.61-3.41,22.48-10.23,29.59-6.75,7.04-16.32,10.56-28.71,10.56-8.36,0-15.91-1.76-22.66-5.28-6.67-3.52-11.88-8.32-15.62-14.41-3.67-6.09-5.5-12.87-5.5-20.35s1.83-14.37,5.5-20.46c3.67-6.09,8.73-10.85,15.18-14.3,6.45-3.52,13.64-5.28,21.56-5.28,4.99,0,10.05,.7,15.18,2.09,5.21,1.32,9.53,3.12,12.98,5.39l2.2,15.51h-.99c-1.54-6.16-5.1-10.96-10.67-14.41-5.57-3.52-11.77-5.28-18.59-5.28-9.75,0-17.89,3.48-24.42,10.45-6.45,6.89-9.68,15.58-9.68,26.07s3.34,19.29,10.01,26.4c6.75,7.04,15.55,10.56,26.4,10.56s19.69-3.52,26.51-10.56c6.89-7.04,10.34-16.68,10.34-28.93h1.1c.07,.88,.11,1.76,.11,2.64ZM1626.71,7.81c-1.83,0-3.41,.66-4.73,1.98-1.32,1.25-2.02,2.79-2.09,4.62v56.76c0,4.25,.26,8.29,.77,12.1l.22,1.98h-.99l-59.95-64.02v54.78c0,1.83,.66,3.41,1.98,4.73,1.32,1.25,2.9,1.87,4.73,1.87h2.09v1.1h-22.66v-1.1h2.09c1.83,0,3.41-.62,4.73-1.87,1.32-1.32,1.98-2.93,1.98-4.84V18.81c0-4.47-.26-8.47-.77-11.99l-.22-1.76h1.1l59.95,64.02V14.52c-.07-1.91-.77-3.48-2.09-4.73-1.32-1.32-2.9-1.98-4.73-1.98h-2.09v-1.1h22.66v1.1h-1.98Zm-165.51,64.02c6.23,6.75,14.41,10.12,24.53,10.12s18.26-3.37,24.42-10.12c6.23-6.75,9.35-15.62,9.35-26.62s-3.12-19.87-9.35-26.62c-6.16-6.75-14.3-10.12-24.42-10.12s-18.3,3.37-24.53,10.12c-6.16,6.75-9.24,15.62-9.24,26.62s3.08,19.87,9.24,26.62Zm-5.94-55.55c7.85-7.41,18-11.11,30.47-11.11s22.73,3.7,30.58,11.11c7.85,7.33,11.77,16.98,11.77,28.93s-3.92,21.63-11.77,29.04c-7.85,7.33-18.04,11-30.58,11s-22.62-3.67-30.47-11c-7.85-7.41-11.77-17.09-11.77-29.04s3.92-21.6,11.77-28.93Zm-51.96,66.33c1.91,0,3.52-.66,4.84-1.98,1.39-1.39,2.13-3.04,2.2-4.95V14.63c-.07-1.91-.81-3.52-2.2-4.84-1.32-1.32-2.93-1.98-4.84-1.98h-1.43v-1.1h24.09v1.1h-1.43c-1.91,0-3.56,.66-4.95,1.98-1.32,1.32-2.02,2.93-2.09,4.84v61.05c0,1.91,.7,3.56,2.09,4.95,1.39,1.32,3.04,1.98,4.95,1.98h1.43v1.1h-24.09v-1.1h1.43Zm-20.04-66.11c0-1.76-.62-3.26-1.87-4.51-1.25-1.32-2.71-2.02-4.4-2.09h-20.9V75.79c.07,1.91,.77,3.52,2.09,4.84,1.39,1.32,3.04,1.98,4.95,1.98h1.43v1.1h-24.09v-1.1h1.43c1.91,0,3.52-.66,4.84-1.98,1.39-1.32,2.13-2.9,2.2-4.73V9.9h-20.9c-1.76,.07-3.26,.77-4.51,2.09-1.17,1.25-1.76,2.75-1.76,4.51v1.87l-1.1,.11V4.62c1.1,.44,3.01,.88,5.72,1.32,2.71,.44,5.21,.66,7.48,.66h37.18c3.59,0,6.56-.26,8.91-.77,2.42-.59,3.89-.99,4.4-1.21v13.86l-1.1-.11v-1.87Zm-119.53,37.18h27.06l-13.2-35.31-13.86,35.31Zm54.12,28.93h.88v1.1h-24.75v-1.1h.99c1.54,0,2.68-.48,3.41-1.43,.81-1.03,1.21-1.98,1.21-2.86s-.15-1.76-.44-2.64l-7.04-18.7h-29.7l-7.37,18.81c-.29,.88-.44,1.76-.44,2.64,0,.81,.37,1.72,1.1,2.75,.81,.95,1.98,1.43,3.52,1.43h.99v1.1h-22.11v-1.1h.99c1.83,0,3.63-.59,5.39-1.76,1.76-1.17,3.19-2.9,4.29-5.17l24.86-59.18c2.71-5.94,4.07-9.72,4.07-11.33h.99l29.48,70.51c1.03,2.27,2.42,4,4.18,5.17,1.76,1.17,3.59,1.76,5.5,1.76Zm-125.26,2.64c-11.59-.07-21.05-3.78-28.38-11.11-7.26-7.33-10.89-16.98-10.89-28.93s3.63-21.71,10.89-29.04c7.33-7.33,17.01-11,29.04-11,9.83,0,18.52,2.49,26.07,7.48l2.2,15.51h-.99c-1.61-6.31-4.88-11.15-9.79-14.52-4.91-3.45-10.74-5.17-17.49-5.17-9.61,0-17.31,3.34-23.1,10.01-5.72,6.67-8.58,15.51-8.58,26.51s2.82,19.87,8.47,26.62c5.72,6.67,13.24,10.12,22.55,10.34,8.21,0,15.07-2.24,20.57-6.71,5.94-4.84,9.53-12.72,10.78-23.65h.88l-1.32,17.27c-6.67,10.93-16.98,16.39-30.91,16.39Zm-58.58-77.44h-1.76c-1.54,0-2.9,.51-4.07,1.54-1.1,.95-1.69,2.16-1.76,3.63V56.54c0,8.58-2.71,15.51-8.14,20.79-5.43,5.28-12.65,7.92-21.67,7.92s-16.35-2.6-22-7.81c-5.57-5.28-8.36-12.21-8.36-20.79V13.31c0-2.2-.95-3.81-2.86-4.84-.88-.44-1.87-.66-2.97-.66h-1.76v-1.1h22.33v1.1h-1.76c-1.61,0-2.97,.51-4.07,1.54-1.1,.95-1.69,2.2-1.76,3.74V55.11c0,7.99,2.13,14.45,6.38,19.36,4.33,4.91,10.08,7.37,17.27,7.37s13.02-2.31,17.49-6.93c4.47-4.69,6.71-10.82,6.71-18.37V13.09c-.07-1.54-.66-2.79-1.76-3.74-1.1-1.03-2.46-1.54-4.07-1.54h-1.76v-1.1h20.35v1.1Zm-154.55,2.2V80.41h21.67c6.16,0,11.59-1.47,16.28-4.4,4.77-2.93,8.43-7.04,11-12.32,2.64-5.35,3.96-11.51,3.96-18.48,0-10.56-2.9-19.07-8.69-25.52-5.72-6.45-13.24-9.68-22.55-9.68h-21.67Zm21.67-3.3c11.73,0,21.23,3.56,28.49,10.67,7.33,7.04,11,16.32,11,27.83s-3.67,20.83-11,27.94c-7.26,7.04-16.76,10.56-28.49,10.56h-37.29v-1.1h1.43c1.91,0,3.52-.66,4.84-1.98,1.39-1.39,2.13-3.04,2.2-4.95V14.08c0-1.76-.73-3.23-2.2-4.4-1.39-1.25-3.01-1.87-4.84-1.87h-1.32l-.11-1.1h37.29Zm-110.4,75.9c1.91,0,3.52-.66,4.84-1.98,1.39-1.39,2.13-3.04,2.2-4.95V14.08c0-1.76-.7-3.23-2.09-4.4-1.39-1.25-3.04-1.87-4.95-1.87h-1.32l-.11-1.1h22.33c2.27,0,4.73-.22,7.37-.66,2.71-.44,4.62-.88,5.72-1.32v13.86h-1.1v-1.98c0-1.76-.62-3.26-1.87-4.51-1.17-1.25-2.6-1.91-4.29-1.98h-12.54V44.11h20.9c1.47-.07,2.71-.62,3.74-1.65,1.03-1.03,1.54-2.31,1.54-3.85v-1.54h1.1v17.38h-1.1v-1.65c0-1.47-.51-2.71-1.54-3.74-.95-1.03-2.16-1.58-3.63-1.65h-21.01v32.89h23.43c5.43,0,9.57-1.21,12.43-3.63,2.86-2.42,5.24-6.01,7.15-10.78h1.1l-6.38,17.82h-53.35v-1.1h1.43Zm-98.73-3.41c-.22-1.03-.33-3.01-.33-5.94s.55-6.05,1.65-9.35h.99c-.07,.81-.11,1.61-.11,2.42,0,4.47,1.36,8.21,4.07,11.22,2.71,2.93,6.31,4.4,10.78,4.4s8.4-1.39,11.33-4.18c3.01-2.79,4.51-6.27,4.51-10.45s-1.43-7.7-4.29-10.34l-21.12-19.58c-3.96-3.67-5.94-8.1-5.94-13.31s1.72-9.64,5.17-13.31c3.52-3.74,8.25-5.61,14.19-5.61,2.79,0,5.94,.37,9.46,1.1h4.29v13.53h-.99c0-3.45-1.21-6.2-3.63-8.25-2.35-2.05-5.39-3.08-9.13-3.08s-6.89,1.25-9.46,3.74c-2.49,2.49-3.74,5.61-3.74,9.35s1.47,6.97,4.4,9.68l21.67,20.02c3.67,3.37,5.5,7.99,5.5,13.86s-1.87,10.71-5.61,14.52c-3.74,3.74-8.73,5.61-14.96,5.61-3.23,0-6.67-.51-10.34-1.54-3.59-.95-6.38-2.46-8.36-4.51Zm-18.72-62.7c0-1.76-.62-3.26-1.87-4.51-1.25-1.32-2.71-2.02-4.4-2.09h-20.9V75.79c.07,1.91,.77,3.52,2.09,4.84,1.39,1.32,3.04,1.98,4.95,1.98h1.43v1.1h-24.09v-1.1h1.43c1.91,0,3.52-.66,4.84-1.98,1.39-1.32,2.13-2.9,2.2-4.73V9.9h-20.9c-1.76,.07-3.26,.77-4.51,2.09-1.17,1.25-1.76,2.75-1.76,4.51v1.87l-1.1,.11V4.62c1.1,.44,3.01,.88,5.72,1.32,2.71,.44,5.21,.66,7.48,.66h37.18c3.59,0,6.56-.26,8.91-.77,2.42-.59,3.89-.99,4.4-1.21v13.86l-1.1-.11v-1.87Zm-112.76-6.38h-7.04V75.68c0,1.91,.66,3.56,1.98,4.95,1.39,1.32,3.08,1.98,5.06,1.98h1.32l.11,1.1h-24.09v-1.1h1.43c1.91,0,3.52-.66,4.84-1.98,1.39-1.32,2.13-2.93,2.2-4.84V14.74c-.07-1.91-.81-3.52-2.2-4.84-1.32-1.39-2.93-2.09-4.84-2.09h-1.43v-1.1h29.7c6.67,0,11.92,1.87,15.73,5.61,3.81,3.67,5.72,8.47,5.72,14.41s-1.83,10.96-5.5,15.29c-3.59,4.25-7.99,6.38-13.2,6.38,1.1,.51,2.38,1.54,3.85,3.08,1.54,1.47,2.9,3.01,4.07,4.62,6.31,9.02,10.41,14.59,12.32,16.72,1.91,2.05,3.26,3.48,4.07,4.29,.81,.73,1.69,1.47,2.64,2.2,.95,.73,1.91,1.32,2.86,1.76,2.13,1.03,4.4,1.54,6.82,1.54v1.1h-6.05c-3.15,0-6.09-.55-8.8-1.65-2.71-1.17-4.77-2.35-6.16-3.52-1.32-1.25-2.49-2.42-3.52-3.52-.95-1.17-3.67-4.99-8.14-11.44-4.47-6.45-7.08-10.12-7.81-11-.73-.95-1.5-1.87-2.31-2.75-2.35-2.49-4.69-3.74-7.04-3.74v-1.1c.59,.07,1.36,.11,2.31,.11s2.13-.04,3.52-.11c9.09-.22,14.81-4.03,17.16-11.44,.44-1.47,.66-2.82,.66-4.07v-2.53c-.15-4.91-1.43-8.87-3.85-11.88-2.42-3.01-5.68-4.62-9.79-4.84-1.76-.07-3.96-.11-6.6-.11Zm-91.51,42.68h27.83l-8.69-25.63c-1.69-4.91-3.23-8.76-4.62-11.55l-14.52,37.18Zm-11.77-49.83c4.77-1.98,9.35-2.97,13.75-2.97,3.67,0,7.44,1.36,11.33,4.07,2.13,1.47,4.51,4.33,7.15,8.58,1.76,2.93,4,8.25,6.71,15.95l13.42,38.06c3.08,8.51,6.2,15.25,9.35,20.24,3.23,5.06,6.16,8.84,8.8,11.33,2.64,2.57,5.39,4.36,8.25,5.39,2.86,1.03,5.21,1.54,7.04,1.54s3.59-.15,5.06-.44l.11,1.1c-3.52,1.17-6.97,1.76-10.34,1.76s-6.75-.88-10.12-2.64c-3.37-1.69-6.53-4.07-9.46-7.15-6.31-6.38-11.66-16.1-16.06-29.15l-4.29-12.54h-30.14l-7.59,19.58c-.37,.88-.55,1.76-.55,2.64s.37,1.83,1.1,2.86c.81,.95,2.02,1.43,3.63,1.43h.88v1.1h-22.11v-1.1h.99c1.76,0,3.48-.51,5.17-1.54,1.69-1.1,3.08-2.71,4.18-4.84l27.28-65.34c-3.96-5.65-8.87-8.47-14.74-8.47-2.64,0-5.46,.55-8.47,1.65l-.33-1.1Zm-65.1,4.84c-1.83,0-3.41,.66-4.73,1.98-1.32,1.25-2.02,2.79-2.09,4.62v56.76c0,4.25,.26,8.29,.77,12.1l.22,1.98h-.99l-59.95-64.02v54.78c0,1.83,.66,3.41,1.98,4.73,1.32,1.25,2.9,1.87,4.73,1.87h2.09v1.1h-22.66v-1.1h2.09c1.83,0,3.41-.62,4.73-1.87,1.32-1.32,1.98-2.93,1.98-4.84V18.81c0-4.47-.26-8.47-.77-11.99l-.22-1.76h1.1l59.95,64.02V14.52c-.07-1.91-.77-3.48-2.09-4.73-1.32-1.32-2.9-1.98-4.73-1.98h-2.09v-1.1h22.66v1.1h-1.98Zm-148.05,45.87h27.06l-13.2-35.31-13.86,35.31Zm54.12,28.93h.88v1.1h-24.75v-1.1h.99c1.54,0,2.68-.48,3.41-1.43,.81-1.03,1.21-1.98,1.21-2.86s-.15-1.76-.44-2.64l-7.04-18.7h-29.7l-7.37,18.81c-.29,.88-.44,1.76-.44,2.64,0,.81,.37,1.72,1.1,2.75,.81,.95,1.98,1.43,3.52,1.43h.99v1.1h-22.11v-1.1h.99c1.83,0,3.63-.59,5.39-1.76s3.19-2.9,4.29-5.17l24.86-59.18c2.71-5.94,4.07-9.72,4.07-11.33h.99l29.48,70.51c1.03,2.27,2.42,4,4.18,5.17,1.76,1.17,3.59,1.76,5.5,1.76ZM299.49,6.71h21.67v1.1h-.88c-1.91,0-3.81,.59-5.72,1.76-1.83,1.1-3.15,2.79-3.96,5.06l-18.26,58.19c-1.47,4.62-2.27,8.69-2.42,12.21h-.99l-22.44-62.92-16.72,50.71c-1.39,4.55-2.16,8.62-2.31,12.21h-.99L221.5,14.52c-.88-2.2-2.24-3.85-4.07-4.95-1.83-1.17-3.7-1.76-5.61-1.76h-.88v-1.1h24.42v1.1h-.99c-1.54,0-2.71,.51-3.52,1.54-.73,.95-1.1,1.87-1.1,2.75s.11,1.69,.33,2.42l16.72,53.57,20.46-63.14,.99,.11,21.67,60.83,14.74-51.48c.22-.81,.33-1.61,.33-2.42,0-.88-.37-1.8-1.1-2.75-.73-.95-1.87-1.43-3.41-1.43h-.99v-1.1Zm-125.5,75.9c1.91,0,3.52-.66,4.84-1.98,1.39-1.39,2.13-3.04,2.2-4.95V14.63c-.07-1.91-.81-3.52-2.2-4.84-1.32-1.32-2.93-1.98-4.84-1.98h-1.43v-1.1h24.09v1.1h-1.43c-1.91,0-3.56,.66-4.95,1.98-1.32,1.32-2.02,2.93-2.09,4.84v61.05c0,1.91,.7,3.56,2.09,4.95,1.39,1.32,3.04,1.98,4.95,1.98h1.43v1.1h-24.09v-1.1h1.43Zm-70.5-28.93h27.06l-13.2-35.31-13.86,35.31Zm54.12,28.93h.88v1.1h-24.75v-1.1h.99c1.54,0,2.68-.48,3.41-1.43,.81-1.03,1.21-1.98,1.21-2.86s-.15-1.76-.44-2.64l-7.04-18.7h-29.7l-7.37,18.81c-.29,.88-.44,1.76-.44,2.64,0,.81,.37,1.72,1.1,2.75,.81,.95,1.98,1.43,3.52,1.43h.99v1.1h-22.11v-1.1h.99c1.83,0,3.63-.59,5.39-1.76,1.76-1.17,3.19-2.9,4.29-5.17l24.86-59.18c2.71-5.94,4.07-9.72,4.07-11.33h.99l29.48,70.51c1.03,2.27,2.42,4,4.18,5.17,1.76,1.17,3.59,1.76,5.5,1.76ZM3.41,28.6c-2.27-2.71-3.41-5.39-3.41-8.03s.62-5.02,1.87-6.93c1.25-1.98,3.26-3.63,6.05-4.95,2.79-1.39,5.94-2.09,9.46-2.09H62.48c2.27,0,4.77-.22,7.48-.66,2.79-.44,4.73-.88,5.83-1.32v13.86l-1.1-.11v-1.87c0-1.76-.62-3.26-1.87-4.51-1.25-1.32-2.71-2.02-4.4-2.09h-20.9V75.79c.07,2.64,1.25,4.62,3.52,5.94,1.1,.59,2.27,.88,3.52,.88h1.43v1.1H31.9v-1.1h1.43c1.91,0,3.52-.66,4.84-1.98,1.39-1.32,2.13-2.9,2.2-4.73V9.9H17.38c-5.87,0-10.12,1.87-12.76,5.61-1.39,1.91-2.09,3.92-2.09,6.05s.59,4.22,1.76,6.49l-.88,.55Z"/>
  </g>
</svg>